# Blender 4.0.2
# www.blender.org
mtllib swirl2.mtl
o Spiral
v 0.010000 0.001880 0.000000
v 0.375833 0.001880 -0.180992
v 0.513934 0.001880 -0.644453
v 0.274019 0.001880 -1.200554
v -0.364616 0.001880 -1.597489
v -1.275482 0.001880 -1.599404
v -2.209948 0.001880 -1.064255
v -2.860000 0.001880 -0.000000
v -2.943594 0.001880 1.417560
v -2.290880 0.001880 2.872672
v -0.908203 0.001880 3.979099
v 0.998801 0.001880 4.376033
v 3.052428 0.001880 3.827623
v 4.777709 0.001880 2.300823
v 5.710000 0.001880 -0.000000
v 5.511355 0.001880 -2.654129
v 0.010000 0.577450 0.000000
v 0.375833 0.577450 -0.180992
v 0.513934 0.577450 -0.644453
v 0.274019 0.577450 -1.200554
v -0.364616 0.577450 -1.597489
v -1.275482 0.577450 -1.599404
v -2.209948 0.577450 -1.064255
v -2.860000 0.577450 -0.000000
v -2.943594 0.577450 1.417560
v -2.290880 0.577450 2.872672
v -0.908203 0.577450 3.979099
v 0.998801 0.577450 4.376033
v 3.052428 0.577450 3.827623
v 4.777709 0.577450 2.300823
v 5.710000 0.577450 -0.000000
v 5.511355 0.577450 -2.654129
vn 0.2561 -0.0000 0.9666
vn -0.2755 -0.0000 0.9613
vn -0.8164 -0.0000 -0.5775
vn -0.4730 -0.0000 -0.8811
vn -0.9983 -0.0000 0.0588
vn -0.7645 -0.0000 -0.6446
vn 0.4260 -0.0000 -0.9047
vn 0.7907 -0.0000 -0.6122
vn 0.9543 -0.0000 0.2990
vn 0.6971 -0.0000 0.7170
vn -0.9880 -0.0000 -0.1545
vn -0.9972 -0.0000 0.0746
vn -0.7577 -0.0000 0.6526
vn -0.0279 -0.0000 -0.9996
vn 0.9836 -0.0000 -0.1804
vn -0.4434 -0.0000 -0.8963
vt 0.000016 0.145034
vt 0.000016 0.103235
vt 1.003052 0.103235
vt 1.003052 0.145034
vt 0.000016 0.763929
vt 0.000016 0.658209
vt 1.003052 0.658209
vt 1.003052 0.763929
vt 0.000016 0.040938
vt 0.000016 0.018746
vt 1.003052 0.018746
vt 1.003052 0.040938
vt 0.000016 0.471284
vt 0.000016 0.390021
vt 1.003052 0.390021
vt 1.003052 0.471284
vt 0.000016 0.251675
vt 0.000016 0.194449
vt 1.003052 0.194449
vt 1.003052 0.251675
vt 0.000016 0.877849
vt 1.003052 0.877849
vt 0.000016 0.999984
vt 1.003052 0.999984
vt 0.000016 0.068730
vt 1.003052 0.068730
vt 0.000016 0.560669
vt 1.003052 0.560669
vt 0.000016 0.316838
vt 1.003052 0.316838
vt 0.000016 0.000016
vt 1.003052 0.000016
s 1
f 6/1/1 5/2/2 21/3/2 22/4/1
f 14/5/3 13/6/4 29/7/4 30/8/3
f 3/9/5 2/10/6 18/11/6 19/12/5
f 11/13/7 10/14/8 26/15/8 27/16/7
f 8/17/9 7/18/10 23/19/10 24/20/9
f 7/18/10 6/1/1 22/4/1 23/19/10
f 15/21/11 14/5/3 30/8/3 31/22/11
f 16/23/12 15/21/11 31/22/11 32/24/12
f 4/25/13 3/9/5 19/12/5 20/26/13
f 12/27/14 11/13/7 27/16/7 28/28/14
f 9/29/15 8/17/9 24/20/9 25/30/15
f 5/2/2 4/25/13 20/26/13 21/3/2
f 13/6/4 12/27/14 28/28/14 29/7/4
f 2/10/6 1/31/16 17/32/16 18/11/6
f 10/14/8 9/29/15 25/30/15 26/15/8
